<?xml version="1.0"?>
<svg xmlns="http://www.w3.org/2000/svg" viewBox="0 0 512 512" width="512" height="512"><g id="_16-notebook" data-name="16-notebook"><g id="filled_outline" data-name="filled outline"><path d="M360,36H324V16a12,12,0,0,0-24,0V36H212V16a12,12,0,0,0-24,0V36H100V16a12,12,0,0,0-24,0V36H40A36.04,36.04,0,0,0,4,72V472a36.04,36.04,0,0,0,36,36H360a36.04,36.04,0,0,0,36-36V72A36.04,36.04,0,0,0,360,36ZM28,72A12.013,12.013,0,0,1,40,60H76V80a12,12,0,0,0,24,0V60h88V80a12,12,0,0,0,24,0V60h88V80a12,12,0,0,0,24,0V60h36a12.013,12.013,0,0,1,12,12v44H28ZM360,484H40a12.013,12.013,0,0,1-12-12V140H372V472A12.013,12.013,0,0,1,360,484Z"/><path d="M320,372H64a12,12,0,0,0,0,24H320a12,12,0,0,0,0-24Z"/><path d="M256,420H64a12,12,0,0,0,0,24H256a12,12,0,0,0,0-24Z"/><path d="M336,308H311.172A43.969,43.969,0,0,0,240,257.848,43.969,43.969,0,0,0,168.828,308H123.3a11.966,11.966,0,0,0,.7-4V282.323A44.07,44.07,0,0,0,156,240c0-11.024-4.239-28.819-10.308-43.273C136.573,175.011,125.238,164,112,164s-24.573,11.011-33.692,32.727C72.239,211.181,68,228.976,68,240a44.07,44.07,0,0,0,32,42.323V304a11.966,11.966,0,0,0,.7,4H64a12,12,0,0,0,0,24H336a12,12,0,0,0,0-24ZM92,240c0-6.245,2.568-19.11,7.476-31.615,5.184-13.209,10.394-19.1,12.524-20.261,2.13,1.162,7.34,7.052,12.524,20.261C129.432,220.89,132,233.755,132,240a20,20,0,0,1-40,0Zm180,28a20,20,0,1,1-20,20A20.023,20.023,0,0,1,272,268Zm-84,20a20,20,0,1,1,20,20A20.023,20.023,0,0,1,188,288Z"/><path d="M507.985,127.7a12.99,12.99,0,0,0-.525-3.265L475.538,12.7a12,12,0,0,0-23.076,0L420.54,124.431A13.677,13.677,0,0,0,420,128V472a36.04,36.04,0,0,0,36,36h16a36.04,36.04,0,0,0,36-36V128C508,127.9,507.987,127.8,507.985,127.7ZM484,404H444V140h40ZM464,59.681,480.091,116H447.909ZM472,484H456a12.013,12.013,0,0,1-12-12V428h40v44A12.013,12.013,0,0,1,472,484Z"/></g></g></svg>
